<svg width="33" height="33" viewBox="0 0 29 29" fill="none" xmlns="http://www.w3.org/2000/svg">
<path d="M14.5 27.241C17.0712 27.241 19.5846 26.4786 21.7224 25.0501C23.8603 23.6216 25.5264 21.5914 26.5104 19.216C27.4943 16.8406 27.7519 14.2266 27.2502 11.7049C26.7486 9.18313 25.5105 6.86672 23.6924 5.04863C21.8743 3.23055 19.5579 1.9925 17.0361 1.49089C14.5144 0.989286 11.9006 1.2467 9.52515 2.23064C7.14971 3.21458 5.11938 4.88076 3.69092 7.0186C2.26246 9.15644 1.5 11.6699 1.5 14.241C1.5 17.6888 2.86964 20.9954 5.30762 23.4334C7.74559 25.8714 11.0522 27.241 14.5 27.241V27.241Z" stroke="#EAD5BA" stroke-width="2" stroke-linecap="round" stroke-linejoin="round"/>
<path d="M14.5 22.241C14.7967 22.241 15.0867 22.153 15.3334 21.9881C15.58 21.8233 15.7723 21.5891 15.8859 21.3151C15.9994 21.041 16.0291 20.7393 15.9712 20.4484C15.9133 20.1574 15.7704 19.8901 15.5607 19.6803C15.3509 19.4705 15.0836 19.3276 14.7926 19.2698C14.5016 19.2119 14.2001 19.2417 13.926 19.3552C13.6519 19.4687 13.4176 19.6609 13.2528 19.9076C13.088 20.1543 13 20.4443 13 20.741C13 21.1388 13.158 21.5203 13.4393 21.8016C13.7206 22.0829 14.1022 22.241 14.5 22.241Z" fill="#EAD5BA"/>
<path d="M14.5 17.241V16.241C15.29 16.2422 16.0625 16.0091 16.72 15.571C17.3783 15.1282 17.8927 14.5025 18.2 13.771C18.4992 13.0397 18.5759 12.2362 18.42 11.4616C18.2642 10.6869 17.883 9.9755 17.3242 9.41675C16.7655 8.858 16.0541 8.47686 15.2794 8.32105C14.5048 8.16524 13.7013 8.24175 12.97 8.54102C12.2385 8.84822 11.6128 9.36265 11.17 10.021C10.732 10.6784 10.4988 11.451 10.5 12.241" stroke="#EAD5BA" stroke-width="2" stroke-linecap="round" stroke-linejoin="round"/>
</svg>
