<svg
  width="33"
  height="26"
  viewBox="0 0 33 27"
  fill="none"
  xmlns="http://www.w3.org/2000/svg"
>
  <path
    d="M28.74 6.66001C28.74 6.95001 28.74 7.23 28.74 7.53C28.74 16.42 22.1399 26.68 10.0599 26.68C6.48524 26.6863 2.98739 25.6432 0 23.68C0.517655 23.7432 1.03845 23.7766 1.55994 23.78C4.53022 23.7772 7.41 22.7572 9.71997 20.89C8.3348 20.8532 6.99632 20.3813 5.89429 19.5414C4.79226 18.7014 3.98257 17.5358 3.57996 16.2099C4.57437 16.4136 5.60312 16.3759 6.57996 16.0999C5.07749 15.7718 3.73365 14.9367 2.77405 13.735C1.81444 12.5332 1.29746 11.0378 1.30994 9.49997V9.41001C2.22616 9.93255 3.25578 10.2243 4.30994 10.26C2.91631 9.27779 1.93907 7.81119 1.56921 6.14682C1.19936 4.48246 1.46346 2.73998 2.30994 1.25998C3.93855 3.32087 5.98758 5.0111 8.32056 6.21811C10.6535 7.42512 13.2169 8.12119 15.84 8.25998C15.5771 7.11529 15.6138 5.9221 15.9467 4.79575C16.2795 3.6694 16.8972 2.6479 17.74 1.82993C18.3617 1.22503 19.0987 0.751587 19.9073 0.437717C20.716 0.123846 21.5796 -0.0239176 22.4465 0.00314623C23.3135 0.03021 24.1661 0.231492 24.9536 0.595187C25.7411 0.958882 26.4473 1.47748 27.03 2.11997C28.5049 1.82035 29.9161 1.26533 31.2 0.479953C30.7175 2.03089 29.6912 3.35544 28.3099 4.20993C29.6126 4.04764 30.8836 3.69038 32.08 3.15C31.1854 4.51021 30.0542 5.69903 28.74 6.66001V6.66001Z"
    fill="#EAD5BA"
  />
</svg>