<svg width="36" height="37" viewBox="0 0 36 37" fill="none" xmlns="http://www.w3.org/2000/svg">
<g clip-path="url(#clip0_860_2838)">
<path d="M10.7729 32.3411L12.3029 28.3838H12.9248L14.4476 32.3411H13.7992L12.8947 29.9552C12.8834 29.9286 12.8609 29.8647 12.8308 29.763C12.797 29.6613 12.7629 29.5484 12.7215 29.4237C12.6801 29.2991 12.6422 29.1861 12.6085 29.0808C12.5747 28.9755 12.5518 28.9112 12.5405 28.881L12.6724 28.8734C12.6499 28.9373 12.6233 29.0205 12.5896 29.1182C12.5558 29.2163 12.5216 29.3216 12.4879 29.4273C12.4501 29.5367 12.4163 29.6384 12.3821 29.7365C12.3479 29.8346 12.3218 29.9138 12.2993 29.9777L11.3984 32.3406H10.7729V32.3411ZM11.4515 31.3574L11.6779 30.7692H13.4756L13.7357 31.3574H11.4515Z" fill="#09AC4B"/>
<path d="M15.0359 32.3411V28.3838H16.7207C16.947 28.3838 17.154 28.4405 17.3462 28.5498C17.5347 28.6628 17.6891 28.8135 17.802 29.0021C17.915 29.1942 17.9717 29.4053 17.9717 29.6429C17.9717 29.8575 17.915 30.0573 17.802 30.2423C17.6891 30.4272 17.5383 30.5739 17.3498 30.6869C17.1612 30.7998 16.9502 30.8529 16.7243 30.8529H15.6501V32.3415H15.0359V32.3411ZM15.6465 30.2679H16.7774C16.8867 30.2679 16.9848 30.2414 17.0712 30.1851C17.1581 30.1325 17.2256 30.0533 17.2746 29.9588C17.3237 29.8607 17.3462 29.7554 17.3462 29.6384C17.3462 29.5065 17.316 29.3895 17.2521 29.2914C17.1882 29.1933 17.1014 29.1141 16.992 29.0579C16.8791 29.0012 16.7544 28.9751 16.6149 28.9751H15.6425V30.2679H15.6461H15.6465ZM17.388 32.3411L16.3818 30.5546L17.0073 30.4115L18.1269 32.3451L17.388 32.3415V32.3411Z" fill="#09AC4B"/>
<path d="M18.8271 32.3411V28.3838H20.4404C20.655 28.3838 20.8512 28.4364 21.0245 28.5458C21.2018 28.6515 21.3413 28.7982 21.4466 28.9832C21.5523 29.1677 21.605 29.3715 21.605 29.5974C21.605 29.8233 21.5523 30.0308 21.4466 30.2117C21.3408 30.3962 21.2018 30.5433 21.0245 30.6563C20.8512 30.7692 20.655 30.8223 20.4404 30.8223H19.4414V32.3375H18.8271V32.3411ZM19.4378 30.2378H20.4251C20.5268 30.2378 20.6172 30.2076 20.7 30.1509C20.7828 30.0942 20.8508 30.015 20.8998 29.9174C20.9489 29.8233 20.9754 29.714 20.9754 29.597C20.9754 29.48 20.9489 29.3747 20.8998 29.2802C20.8472 29.1861 20.7828 29.1105 20.7 29.0538C20.6172 28.9971 20.5227 28.971 20.4251 28.971H19.4378V30.2373V30.2378Z" fill="#09AC4B"/>
<path d="M21.5522 32.3411L23.0863 28.3838H23.7082L25.2269 32.3411H24.5785L23.674 29.9552C23.6627 29.9286 23.6402 29.8647 23.6101 29.763C23.5763 29.6613 23.5421 29.5484 23.5007 29.4237C23.4593 29.2995 23.4215 29.1861 23.3878 29.0808C23.354 28.9755 23.3311 28.9112 23.3198 28.881L23.4517 28.8734C23.4292 28.9373 23.4026 29.0205 23.3689 29.1182C23.3351 29.2158 23.3009 29.3216 23.2672 29.4273C23.2294 29.5367 23.1956 29.6384 23.1614 29.7365C23.1277 29.8305 23.1011 29.9138 23.0786 29.9777L22.1818 32.3406H21.5522V32.3411ZM22.2308 31.3574L22.4572 30.7692H24.2549L24.515 31.3574H22.2308Z" fill="#09AC4B"/>
<path d="M20.1241 16.2251C19.0355 16.8587 18.0856 17.6466 17.2814 18.5318C15.8032 18.3207 14.4712 17.5409 13.5532 16.3713C13.9024 15.2342 14.0972 14.0241 14.0972 12.7731C14.0972 11.5221 13.9024 10.304 13.5532 9.16684C14.4793 7.98919 15.8113 7.22554 17.2895 7.00639C18.0937 7.89154 19.0441 8.67139 20.1322 9.31309C22.0654 10.4502 24.1853 10.9862 26.281 10.9862C27.5644 10.9862 28.8397 10.7832 30.0578 10.3931C29.3999 7.10359 27.3857 4.09039 24.2668 2.26249C22.3331 1.12579 20.2136 0.589844 18.118 0.589844C16.8346 0.589844 15.5593 0.792794 14.3411 1.18294C14.6174 2.53924 15.121 3.84694 15.8275 5.04124C14.6174 5.39854 13.5127 6.03214 12.5947 6.90109C11.9206 5.68294 11.0516 4.58629 10.0198 3.66019C7.5101 5.89399 5.9342 9.14254 5.9342 12.7655C5.9342 16.3884 7.5182 19.637 10.0198 21.8708C11.0512 20.9528 11.9287 19.8566 12.6028 18.6299C13.5208 19.4907 14.6251 20.1324 15.8356 20.4897C15.121 21.6836 14.6174 22.9913 14.3492 24.3399C15.5674 24.7296 16.8427 24.933 18.1261 24.933C20.2217 24.933 22.3417 24.3971 24.2749 23.2599C27.4019 21.4325 29.408 18.4188 30.0659 15.1293C28.8478 14.7396 27.5725 14.5362 26.2891 14.5362C24.1853 14.5524 22.0654 15.0884 20.1241 16.2255V16.2251ZM18.1099 2.82319C19.8644 2.82319 21.6023 3.29434 23.1296 4.18759C24.9247 5.24329 26.3381 6.82729 27.1747 8.69569C26.8741 8.71999 26.5735 8.73619 26.2814 8.73619C24.5269 8.73619 22.789 8.26504 21.2617 7.37179C19.4666 6.31609 18.0532 4.73209 17.2166 2.86369C17.5091 2.83939 17.8097 2.82319 18.1099 2.82319ZM10.0121 18.5399C8.81825 16.8668 8.16035 14.8521 8.16035 12.765C8.16035 10.6779 8.81825 8.66329 10.004 6.99019C11.1898 8.66329 11.8477 10.6779 11.8477 12.765C11.8558 14.8526 11.1979 16.8668 10.0121 18.5399ZM23.1296 21.342C21.6028 22.2353 19.8725 22.7064 18.1099 22.7064C17.8093 22.7064 17.5087 22.6902 17.2166 22.6659C18.0613 20.7899 19.4666 19.2059 21.2617 18.1578C22.7885 17.2646 24.5188 16.7934 26.2814 16.7934C26.582 16.7934 26.8826 16.8096 27.1747 16.8339C26.33 18.7019 24.9247 20.2859 23.1296 21.342Z" fill="#09AC4B"/>
</g>
<defs>
<clipPath id="clip0_860_2838">
<rect width="36" height="36" fill="white" transform="translate(0 0.5)"/>
</clipPath>
</defs>
</svg>
