<svg width="36" height="36" viewBox="0 0 36 36" fill="none" xmlns="http://www.w3.org/2000/svg">
<path d="M20.1241 15.7251C19.0355 16.3587 18.0856 17.1466 17.2814 18.0318C15.8032 17.8207 14.4712 17.0409 13.5532 15.8713C13.9024 14.7342 14.0972 13.5241 14.0972 12.2731C14.0972 11.0221 13.9024 9.80399 13.5532 8.66684C14.4793 7.48919 15.8113 6.72554 17.2895 6.50639C18.0937 7.39154 19.0441 8.17139 20.1322 8.81309C22.0654 9.95024 24.1853 10.4862 26.281 10.4862C27.5644 10.4862 28.8397 10.2832 30.0578 9.89309C29.3999 6.60359 27.3857 3.59039 24.2668 1.76249C22.3331 0.625794 20.2136 0.0898438 18.118 0.0898438C16.8346 0.0898438 15.5593 0.292794 14.3411 0.682944C14.6174 2.03924 15.121 3.34694 15.8275 4.54124C14.6174 4.89854 13.5127 5.53214 12.5947 6.40109C11.9206 5.18294 11.0516 4.08629 10.0198 3.16019C7.5101 5.39399 5.9342 8.64254 5.9342 12.2655C5.9342 15.8884 7.5182 19.137 10.0198 21.3708C11.0512 20.4528 11.9287 19.3566 12.6028 18.1299C13.5208 18.9907 14.6251 19.6324 15.8356 19.9897C15.121 21.1836 14.6174 22.4913 14.3492 23.8399C15.5674 24.2296 16.8427 24.433 18.1261 24.433C20.2217 24.433 22.3417 23.8971 24.2749 22.7599C27.4019 20.9325 29.408 17.9188 30.0659 14.6293C28.8478 14.2396 27.5725 14.0362 26.2891 14.0362C24.1853 14.0524 22.0654 14.5884 20.1241 15.7255V15.7251ZM18.1099 2.32319C19.8644 2.32319 21.6023 2.79434 23.1296 3.68759C24.9247 4.74329 26.3381 6.32729 27.1747 8.19569C26.8741 8.21999 26.5735 8.23619 26.2814 8.23619C24.5269 8.23619 22.789 7.76504 21.2617 6.87179C19.4666 5.81609 18.0532 4.23209 17.2166 2.36369C17.5091 2.33939 17.8097 2.32319 18.1099 2.32319ZM10.0121 18.0399C8.81825 16.3668 8.16035 14.3521 8.16035 12.265C8.16035 10.1779 8.81825 8.16329 10.004 6.49019C11.1898 8.16329 11.8477 10.1779 11.8477 12.265C11.8558 14.3526 11.1979 16.3668 10.0121 18.0399ZM23.1296 20.842C21.6028 21.7353 19.8725 22.2064 18.1099 22.2064C17.8093 22.2064 17.5087 22.1902 17.2166 22.1659C18.0613 20.2899 19.4666 18.7059 21.2617 17.6578C22.7885 16.7646 24.5188 16.2934 26.2814 16.2934C26.582 16.2934 26.8826 16.3096 27.1747 16.3339C26.33 18.2019 24.9247 19.7859 23.1296 20.842Z" fill="#09AC4B"/>
<path d="M11.4764 31.8328V30.2497C11.4764 29.8924 11.4728 29.5832 11.4544 29.3218L11.4211 28.9793L12.529 30.7244H12.8935L14.031 28.9685L13.9978 29.3551C13.9829 29.6201 13.9721 29.9185 13.9721 30.2497V31.8328H14.5683V27.9673H14.0162L12.7315 30.0251L11.4688 27.9673H10.8833V31.8328H11.476H11.4764ZM16.1704 31.8328V27.9673H15.5741V31.8328H16.1704ZM19.1192 31.7405C19.3289 31.6483 19.4873 31.5088 19.6052 31.3283C19.7231 31.1479 19.7744 30.9382 19.7744 30.688C19.7744 30.5552 19.7452 30.4342 19.6934 30.3199C19.6344 30.2056 19.5498 30.1066 19.4396 30.0107C19.3293 29.9185 19.1966 29.8415 19.0382 29.7677C18.8798 29.7016 18.7034 29.6462 18.4969 29.6021C18.3533 29.5765 18.2318 29.536 18.1287 29.4991C18.0257 29.4622 17.9483 29.4181 17.8857 29.3663C17.8232 29.3146 17.7755 29.2633 17.7494 29.1971C17.7238 29.1382 17.7053 29.0644 17.7053 28.9874C17.7053 28.8844 17.7386 28.7885 17.7976 28.7075C17.8565 28.6301 17.9411 28.5712 18.0442 28.5271C18.1472 28.483 18.2759 28.4609 18.4195 28.4609C18.5446 28.4609 18.6625 28.483 18.7727 28.5199C18.883 28.564 18.9824 28.6229 19.0747 28.7075C19.1669 28.7921 19.2515 28.8952 19.3212 29.0167L19.7411 28.6045C19.6601 28.4573 19.5499 28.3358 19.4207 28.2292C19.2956 28.1297 19.1444 28.0523 18.9788 28.0046C18.8132 27.9569 18.6328 27.9272 18.4339 27.9272C18.2462 27.9272 18.0693 27.9529 17.9109 28.0046C17.7525 28.06 17.609 28.1374 17.4911 28.2292C17.3696 28.3286 17.2778 28.4425 17.2112 28.5752C17.1415 28.708 17.1082 28.8515 17.1082 29.0059C17.1082 29.1602 17.1302 29.3042 17.1779 29.4293C17.2256 29.5544 17.2994 29.6723 17.3989 29.7718C17.4983 29.8712 17.6198 29.9522 17.767 30.0184C17.9141 30.0845 18.0873 30.1399 18.2862 30.1768C18.4113 30.1988 18.5221 30.2245 18.6175 30.2542C18.7097 30.2875 18.7979 30.3239 18.8712 30.3644C18.941 30.4013 18.9964 30.4454 19.0481 30.4972C19.0922 30.5449 19.1255 30.5966 19.1476 30.6556C19.1696 30.7145 19.1809 30.7771 19.1809 30.8432C19.1809 30.9427 19.1475 31.0309 19.0814 31.1083C19.0153 31.1857 18.9266 31.2446 18.8127 31.2887C18.6989 31.3328 18.5698 31.3549 18.4334 31.3549C18.2089 31.3549 18.01 31.3072 17.8444 31.2077C17.6788 31.1083 17.5096 30.9314 17.3251 30.674L16.9165 31.1416C17.0308 31.3072 17.1595 31.4435 17.3066 31.5538C17.4502 31.6681 17.6086 31.7527 17.7926 31.8076C17.9695 31.8629 18.1607 31.8886 18.3704 31.8886C18.6611 31.8886 18.9077 31.8409 19.1179 31.7414L19.1192 31.7405ZM21.1402 31.8328V27.9673H20.5439V31.8328H21.1402Z" fill="#09AC4B"/>
<path d="M22.0973 31.8328V27.9673H23.7429C23.9639 27.9673 24.1664 28.0226 24.354 28.1293C24.5381 28.2395 24.6888 28.3871 24.7995 28.5712C24.9098 28.7588 24.9651 28.9649 24.9651 29.1971C24.9651 29.4068 24.9098 29.6021 24.7995 29.7826C24.6893 29.963 24.5417 30.1066 24.3576 30.2168C24.1736 30.3271 23.9675 30.3788 23.7465 30.3788H22.6971V31.8328H22.0973ZM22.6935 29.8078H23.7978C23.9045 29.8078 24.0003 29.7821 24.0849 29.7268C24.1695 29.675 24.2357 29.5981 24.2838 29.5058C24.3315 29.41 24.3576 29.3069 24.3576 29.1931C24.3576 29.0644 24.3284 28.9501 24.2654 28.8542C24.2028 28.7584 24.1182 28.681 24.0116 28.6261C23.9013 28.5707 23.7798 28.5451 23.6435 28.5451H22.6935V29.8078ZM24.3945 31.8328L23.4117 30.0877L24.0228 29.9477L25.1163 31.8364L24.395 31.8328H24.3945Z" fill="#09AC4B"/>
</svg>
