<svg width="26" height="32" viewBox="0 0 26 32" fill="none" xmlns="http://www.w3.org/2000/svg">
<path d="M15.124 15.7273C14.035 16.3573 13.0855 17.1448 12.28 18.0313C10.7995 17.8198 9.46755 17.0413 8.54955 15.8713C8.90055 14.7328 9.09405 13.5223 9.09405 12.2713C9.09405 11.0203 8.90055 9.80084 8.54955 8.66684C9.47655 7.48784 10.8085 6.72734 12.2845 6.50684C13.09 7.39334 14.0395 8.17184 15.1285 8.81534C17.0635 9.95384 19.183 10.4893 21.2755 10.4893C22.558 10.4893 23.836 10.2868 25.051 9.89534C24.394 6.60584 22.378 3.59084 19.2595 1.76384C17.3335 0.625344 15.214 0.0898438 13.117 0.0898438C11.8345 0.0898438 10.5565 0.292344 9.34155 0.683844C9.61605 2.03834 10.12 3.34784 10.8265 4.54034C9.61605 4.89584 8.51355 5.53034 7.59555 6.39884C6.92055 5.17934 6.05205 4.08584 5.02155 3.15884C2.51055 5.39084 0.935547 8.63984 0.935547 12.2623C0.935547 15.8848 2.51955 19.1338 5.02155 21.3658C6.05205 20.4478 6.92955 19.3498 7.60455 18.1258C8.52255 18.9853 9.62505 19.6288 10.8355 19.9843C10.12 21.1768 9.61605 22.4863 9.35055 23.8363C10.57 24.2278 11.8435 24.4303 13.126 24.4303C15.223 24.4303 17.3425 23.8948 19.273 22.7563C22.4005 20.9293 24.4075 17.9143 25.0645 14.6248C23.845 14.2333 22.5715 14.0308 21.289 14.0308C19.1875 14.0533 17.0635 14.5888 15.124 15.7273ZM13.108 2.32184C14.863 2.32184 16.6 2.79434 18.1255 3.68534C19.921 4.74284 21.334 6.32684 22.171 8.19434C21.8695 8.21684 21.568 8.23484 21.28 8.23484C19.525 8.23484 17.788 7.76234 16.2625 6.87134C14.467 5.81384 13.054 4.22984 12.217 2.36234C12.5095 2.33984 12.811 2.32184 13.108 2.32184ZM5.01255 18.0403C3.82005 16.3663 3.15855 14.3503 3.15855 12.2668C3.15855 10.1833 3.81555 8.16734 5.00355 6.49334C6.19155 8.16734 6.84855 10.1788 6.84855 12.2668C6.85755 14.3548 6.19605 16.3663 5.01255 18.0403ZM18.13 20.8438C16.6045 21.7393 14.872 22.2073 13.1125 22.2073C12.811 22.2073 12.5095 22.1893 12.217 22.1668C13.063 20.2903 14.467 18.7063 16.2625 17.6578C17.788 16.7623 19.5205 16.2943 21.28 16.2943C21.5815 16.2943 21.883 16.3123 22.171 16.3348C21.3295 18.2023 19.9255 19.7863 18.13 20.8438Z" fill="#09AC4B"/>
<path d="M5.15206 28.4895V29.808H7.04656V30.2715H5.15206V31.8015H4.61206V28.0215H7.28056V28.4895H5.15206Z" fill="#09AC4B"/>
<path d="M7.60901 28.0171H8.14901V31.7971H7.60901V28.0171Z" fill="#09AC4B"/>
<path d="M12.1046 28.0171V31.7971H11.6636L9.39107 28.9801V31.7971H8.85107V28.0171H9.29208L11.5601 30.8341V28.0171H12.1046Z" fill="#09AC4B"/>
<path d="M12.8065 28.0171H14.3995C15.6145 28.0171 16.4425 28.7821 16.4425 29.9071C16.4425 31.0321 15.6145 31.7971 14.3995 31.7971H12.8065V28.0171ZM14.368 31.3291C15.304 31.3291 15.9025 30.7576 15.9025 29.9071C15.9025 29.0611 15.304 28.4851 14.368 28.4851H13.3465V31.3246H14.368V31.3291Z" fill="#09AC4B"/>
<path d="M16.8341 28.0171H17.3741V31.7971H16.8341V28.0171Z" fill="#09AC4B"/>
<path d="M19.3091 30.1186L18.616 30.8206V31.7971H18.076V28.0171H18.616V30.1276L20.6681 28.0171H21.2845L19.6691 29.7181L21.3881 31.7971H20.7581L19.3091 30.1186Z" fill="#09AC4B"/>
</svg>
