<svg width="36" height="36" viewBox="0 0 36 36" fill="none" xmlns="http://www.w3.org/2000/svg">
<path d="M20.1239 15.6353C19.0354 16.2689 18.0854 17.0568 17.2813 17.942C15.803 17.7309 14.471 16.9511 13.553 15.7815C13.9022 14.6444 14.0971 13.4343 14.0971 12.1833C14.0971 10.9323 13.9022 9.71415 13.553 8.577C14.4791 7.39935 15.8111 6.6357 17.2894 6.41655C18.0935 7.3017 19.0439 8.08155 20.132 8.72325C22.0652 9.8604 24.1852 10.3964 26.2808 10.3964C27.5642 10.3964 28.8395 10.1934 30.0577 9.80325C29.3998 6.51375 27.3856 3.50055 24.2666 1.67265C22.333 0.53595 20.2135 0 18.1178 0C16.8344 0 15.5591 0.20295 14.341 0.5931C14.6173 1.9494 15.1208 3.2571 15.8273 4.4514C14.6173 4.8087 13.5125 5.4423 12.5945 6.31125C11.9204 5.0931 11.0515 3.99645 10.0196 3.07035C7.50998 5.30415 5.93408 8.5527 5.93408 12.1757C5.93408 15.7986 7.51808 19.0472 10.0196 21.281C11.051 20.363 11.9285 19.2668 12.6026 18.0401C13.5206 18.9009 14.6249 19.5426 15.8354 19.8999C15.1208 21.0938 14.6173 22.4015 14.3491 23.7501C15.5672 24.1398 16.8425 24.3432 18.1259 24.3432C20.2216 24.3432 22.3415 23.8073 24.2747 22.6701C27.4018 20.8427 29.4079 17.829 30.0658 14.5395C28.8476 14.1498 27.5723 13.9464 26.2889 13.9464C24.1852 13.9626 22.0652 14.4986 20.1239 15.6357V15.6353ZM18.1097 2.23335C19.8643 2.23335 21.6022 2.7045 23.1295 3.59775C24.9245 4.65345 26.338 6.23745 27.1745 8.10585C26.8739 8.13015 26.5733 8.14635 26.2813 8.14635C24.5267 8.14635 22.7888 7.6752 21.2615 6.78195C19.4665 5.72625 18.053 4.14225 17.2165 2.27385C17.509 2.24955 17.8096 2.23335 18.1097 2.23335ZM10.012 17.9501C8.81813 16.277 8.16023 14.2623 8.16023 12.1752C8.16023 10.0881 8.81813 8.07345 10.0039 6.40035C11.1896 8.07345 11.8475 10.0881 11.8475 12.1752C11.8556 14.2628 11.1977 16.277 10.012 17.9501ZM23.1295 20.7522C21.6026 21.6455 19.8724 22.1166 18.1097 22.1166C17.8091 22.1166 17.5085 22.1004 17.2165 22.0761C18.0611 20.2001 19.4665 18.6161 21.2615 17.568C22.7884 16.6748 24.5186 16.2036 26.2813 16.2036C26.5819 16.2036 26.8825 16.2198 27.1745 16.2441C26.3299 18.1121 24.9245 19.6961 23.1295 20.7522Z" fill="#09AC4B"/>
<path d="M6.68201 32.3349V28.3735H8.33441C8.58731 28.3735 8.79836 28.4113 8.97566 28.4869C9.14936 28.5625 9.28121 28.6755 9.36806 28.8226C9.45491 28.9734 9.49991 29.1547 9.49991 29.3698C9.49991 29.5849 9.43961 29.7699 9.32261 29.917C9.20561 30.0678 9.03956 30.1735 8.82851 30.2262V30.1128C9.00581 30.1506 9.16061 30.2185 9.29246 30.3126C9.42431 30.4066 9.52646 30.5277 9.60161 30.6708C9.67676 30.8139 9.71096 30.9799 9.71096 31.1613C9.71096 31.3426 9.68081 31.5159 9.62411 31.663C9.56381 31.8102 9.47696 31.9308 9.36401 32.0289C9.24701 32.127 9.11111 32.2026 8.94911 32.2516C8.78711 32.3043 8.60216 32.3272 8.39471 32.3272H6.68201V32.3349ZM7.29311 30.0147H8.30021C8.41361 30.0147 8.51531 29.9922 8.60216 29.9467C8.68901 29.9013 8.76056 29.8374 8.80961 29.7582C8.86226 29.679 8.88521 29.5885 8.88521 29.4864C8.88521 29.3167 8.82851 29.1844 8.71556 29.0976C8.60216 29.0071 8.44016 28.9617 8.22911 28.9617H7.28951V30.0142H7.29311V30.0147ZM7.29311 31.7463H8.35691C8.51171 31.7463 8.64356 31.7238 8.74931 31.6783C8.85866 31.6329 8.93786 31.5649 8.99816 31.4785C9.05486 31.3917 9.08501 31.2823 9.08501 31.1577C9.08501 31.0407 9.05486 30.9426 8.99051 30.8557C8.93021 30.7729 8.83976 30.7086 8.72636 30.6672C8.61296 30.6258 8.47751 30.6028 8.32631 30.6028H7.28906V31.7458H7.29266L7.29311 31.7463Z" fill="#09AC4B"/>
<path d="M12.0127 32.3693C11.7072 32.3693 11.4318 32.3014 11.1901 32.1695C10.9485 32.0377 10.7599 31.8527 10.6204 31.6151C10.4809 31.3811 10.413 31.1134 10.413 30.8155V28.3706H11.0241V30.7664C11.0241 30.959 11.0695 31.1323 11.16 31.2835C11.2504 31.4347 11.371 31.5589 11.5182 31.6493C11.6653 31.7398 11.8314 31.7852 12.0087 31.7852C12.1972 31.7852 12.3669 31.7398 12.5217 31.6493C12.6724 31.5589 12.7971 31.4383 12.8875 31.2835C12.978 31.1287 13.0234 30.959 13.0234 30.7664V28.3706H13.6044V30.8155C13.6044 31.1134 13.5364 31.3816 13.3969 31.6151C13.2574 31.8527 13.0689 32.0377 12.8272 32.1695C12.5896 32.3054 12.3178 32.3693 12.0123 32.3693H12.0127Z" fill="#09AC4B"/>
<path d="M16.3701 32.3918C16.0834 32.3918 15.8157 32.3392 15.5664 32.237C15.3175 32.1353 15.0984 31.9882 14.9098 31.8032C14.7213 31.6183 14.5741 31.4032 14.4724 31.1543C14.3667 30.9091 14.3176 30.6413 14.3176 30.3547C14.3176 30.068 14.3703 29.8075 14.4724 29.5622C14.5746 29.317 14.7213 29.1019 14.9062 28.921C15.0948 28.7401 15.3099 28.5965 15.5587 28.4948C15.8076 28.3931 16.0758 28.34 16.3624 28.34C16.5622 28.34 16.7584 28.3702 16.947 28.4228C17.1355 28.4795 17.3092 28.5587 17.464 28.6604C17.6188 28.7621 17.743 28.8791 17.8411 29.0114L17.4451 29.4263C17.3317 29.317 17.2152 29.2265 17.0982 29.1545C16.9776 29.083 16.8565 29.0299 16.7323 28.9885C16.6077 28.9507 16.4835 28.9318 16.3588 28.9318C16.155 28.9318 15.9664 28.9696 15.7968 29.0411C15.6231 29.1127 15.4723 29.2148 15.3441 29.3431C15.2122 29.4713 15.1141 29.6221 15.0421 29.7922C14.9706 29.9659 14.9364 30.1504 14.9364 30.3542C14.9364 30.5581 14.9742 30.7354 15.0498 30.9127C15.1254 31.0864 15.2307 31.2407 15.363 31.373C15.4953 31.5053 15.6496 31.6106 15.8269 31.6822C16.0006 31.7578 16.1892 31.7956 16.3854 31.7956C16.5325 31.7956 16.672 31.7731 16.8043 31.7312C16.9362 31.6898 17.0532 31.6255 17.1553 31.5463C17.257 31.4671 17.3362 31.3766 17.3929 31.2709C17.4496 31.1692 17.4757 31.0558 17.4757 30.9388V30.8254L17.5585 30.9046H16.3476V30.3011H18.1017C18.1093 30.3425 18.1129 30.3839 18.1206 30.4217C18.1242 30.4595 18.1282 30.5009 18.1282 30.5351C18.1282 30.5729 18.1318 30.6067 18.1318 30.6409C18.1318 30.901 18.0864 31.139 17.9959 31.3501C17.9055 31.5652 17.7808 31.7461 17.6188 31.9009C17.4568 32.0557 17.2719 32.1763 17.0568 32.2591C16.8493 32.3495 16.6194 32.3909 16.3701 32.3909V32.3918ZM16.3246 28.0871C16.1698 28.0871 16.0303 28.0534 15.9021 27.9814C15.7738 27.9134 15.6721 27.8194 15.5853 27.7024C15.5025 27.589 15.4417 27.4607 15.408 27.3253L15.8269 27.2573C15.8683 27.3518 15.9327 27.4382 16.0195 27.5138C16.1064 27.5894 16.2081 27.6272 16.3251 27.6272C16.4421 27.6272 16.5438 27.5894 16.6306 27.5138C16.7175 27.4382 16.7814 27.3554 16.8232 27.2573L17.2422 27.3253C17.212 27.4612 17.1517 27.5854 17.0685 27.7024C16.9816 27.8194 16.8759 27.9098 16.7517 27.9814C16.6234 28.0529 16.4839 28.0871 16.3255 28.0871H16.3246Z" fill="#09AC4B"/>
<path d="M18.8717 32.3349V28.3735H20.4224C20.7055 28.3735 20.962 28.4226 21.1883 28.5171C21.4147 28.6116 21.6109 28.747 21.7729 28.9243C21.9349 29.1016 22.0595 29.3131 22.1464 29.5543C22.2332 29.796 22.2782 30.0637 22.2782 30.358C22.2782 30.6523 22.2328 30.9201 22.1464 31.1653C22.06 31.4106 21.9353 31.618 21.7765 31.7953C21.6145 31.969 21.4219 32.1045 21.1919 32.199C20.962 32.2935 20.7055 32.3425 20.4224 32.3425H18.8717V32.3349ZM19.4828 31.8106L19.4639 31.7503H20.3918C20.5916 31.7503 20.7689 31.7202 20.9273 31.6522C21.0821 31.5879 21.218 31.4974 21.3233 31.3768C21.4327 31.2562 21.5119 31.1127 21.5686 30.9394C21.6253 30.7662 21.6514 30.5695 21.6514 30.3549C21.6514 30.1402 21.6212 29.9476 21.5686 29.7739C21.5119 29.6043 21.4291 29.4571 21.3197 29.3365C21.2104 29.2159 21.0781 29.1255 20.9237 29.0611C20.7694 28.9968 20.5916 28.963 20.3918 28.963H19.4486L19.4824 28.914V31.8115L19.4828 31.8106Z" fill="#09AC4B"/>
<path d="M22.433 32.3349L23.9684 28.3735H24.5907L26.1113 32.3349H25.4624L24.557 29.9467C24.5457 29.9202 24.5232 29.8563 24.4926 29.7541C24.4589 29.6524 24.4247 29.539 24.3833 29.4144C24.3419 29.2897 24.3041 29.1768 24.2699 29.071C24.2357 28.9653 24.2132 28.9014 24.2019 28.8712L24.3338 28.8636C24.3113 28.9279 24.2847 29.0107 24.251 29.1088C24.2172 29.2069 24.183 29.3127 24.1493 29.418C24.1115 29.5273 24.0777 29.629 24.0435 29.7271C24.0098 29.8216 23.9832 29.9044 23.9607 29.9688L23.063 32.334H22.433V32.3349ZM23.112 31.3503L23.3384 30.7617H25.1379L25.398 31.3503H23.112Z" fill="#09AC4B"/>
<path d="M27.2655 32.3349V30.3616L27.3033 30.637L25.7 28.3735H26.4357L27.6579 30.1276L27.5144 30.1087L28.616 28.3735H29.3175L27.7898 30.7014L27.8726 30.3166V32.3349H27.2651H27.2655Z" fill="#09AC4B"/>
</svg>
